<svg id="svg39620" xmlns:rdf="http://www.w3.org/1999/02/22-rdf-syntax-ns#" xmlns="http://www.w3.org/2000/svg" height="1100" viewBox="0 0 1500 1100" width="1500" version="1.1" xmlns:cc="http://creativecommons.org/ns#" xmlns:dc="http://purl.org/dc/elements/1.1/">
<g id="frame">
    <g id="g272524" transform="translate(376.97 64.617)" stroke="#000000">
        <path id="path185724" stroke-linejoin="round" style="color-rendering:auto;color:#000000;isolation:auto;mix-blend-mode:normal;shape-rendering:auto;solid-color:#000000;image-rendering:auto" d="m640.81 299.18c-8.2453 0.10657-16.264 1.3851-22.305 3.7793-14.277 5.6587-17.819 17.68-4.5898 25.338l35.555 20.58c5.3822 3.1156 17.608 3.6276 24.52 4.5723 6.9954 0.95616 12.167 1.7647 18.102 5.1484l179.48 102.34c27.521 15.691 25.579 52.598-5.6191 69.871l-260.88 144.44c-10.813 5.987-18.445 7.4326-28.689 9.1484-10.169 1.7034-27.114 2.6288-37.537 8.3164l-73.051 39.861c-29.194 15.93-40.9 42.263-27.418 55.264 13.737 13.245 53.008 12.075 82.625-5.0703l73.99-42.83c10.545-6.1044 15.056-17.787 19.453-24.477 4.3973-6.689 7.9041-11.608 18.773-17.805l261.42-149.05c15.673-8.9358 40.502-13.362 65.354-13.332 24.851-0.0298 49.681 4.3962 65.354 13.332l261.42 149.05c10.869 6.197 14.376 11.116 18.774 17.805 4.3975 6.6892 8.9081 18.372 19.453 24.477l73.994 42.836c29.617 17.145 68.888 18.316 82.625 5.0703 13.482-13 1.776-39.334-27.418-55.264l-73.051-39.861c-10.423-5.6876-27.368-6.613-37.537-8.3164-10.245-1.7158-17.876-3.1614-28.69-9.1484l-260.9-144.45c-31.198-17.273-33.14-54.18-5.6191-69.871l179.49-102.34c5.9348-3.3838 11.106-4.1923 18.102-5.1484 6.9119-0.94468 19.137-1.4566 24.52-4.5723l35.555-20.58c13.229-7.6582 9.6872-19.679-4.5898-25.338-6.0404-2.3942-14.059-3.6727-22.305-3.7793-10.601-0.13701-21.576 1.6633-29.193 5.5195-0.7445 0.0606-1.4264 0.2251-1.9296 0.50196-0.4876 0.26813-0.7403 0.60002-0.7735 0.94726l-34.037 18.572c-5.4271 2.9613-4.9282 8.7569-5.9355 12.154-1.0248 3.4563-1.9901 6.0375-7.9473 9.3359 0 0-179.84 99.571-180.04 99.684-13.76 7.6188-36.542 11.42-59.328 11.414-22.786 0.006-45.568-3.7953-59.328-11.414-0.20251-0.11223-180.04-99.684-180.04-99.684-5.9572-3.2984-6.9225-5.8796-7.9473-9.3359-1.0073-3.3974-0.50845-9.193-5.9356-12.154l-34.037-18.572c-0.0332-0.34724-0.28583-0.67913-0.77343-0.94726-0.5032-0.27686-1.1852-0.44135-1.9297-0.50196-7.6179-3.8563-18.592-5.6565-29.193-5.5195zm-3.6172 8.5254c2.7146 0.00014 5.1461 0.5038 6.7598 1.4024 3.3705 1.8769 2.3385 4.937-2.334 6.834-2.2506 0.91385-5.0578 1.4277-7.8008 1.4277s-5.1926-0.51403-6.8047-1.4277c-1.6091-0.91188-2.2496-2.1464-1.7871-3.4297 0.4612-1.2797 1.9826-2.5039 4.2285-3.4043 2.2416-0.89855 5.0236-1.4024 7.7383-1.4024zm645.61 0c2.7147 0 5.4967 0.5038 7.7383 1.4024 2.2459 0.9004 3.7673 2.1246 4.2285 3.4043 0.4625 1.2833-0.178 2.5178-1.7871 3.4297-1.6121 0.91371-4.0617 1.4277-6.8047 1.4277s-5.5502-0.51389-7.8008-1.4277c-4.6725-1.897-5.7045-4.9571-2.334-6.834 1.6137-0.89855 4.0452-1.4022 6.7598-1.4024zm-617.43 15.734c2.7609 0 5.2489 0.52158 6.918 1.4512 3.4866 1.9415 2.5316 5.1076-2.1621 7.0703-2.2609 0.94532-5.1002 1.4766-7.8906 1.4766-2.7901 0.00014-5.2968-0.53125-6.9648-1.4766-1.6647-0.94362-2.3548-2.2212-1.9238-3.5488 0.4296-1.3238 1.941-2.5901 4.1973-3.5215 2.2521-0.92945 5.0655-1.451 7.8262-1.4512zm589.24 0c2.7607 0.00014 5.5741 0.52172 7.8262 1.4512 2.2563 0.93143 3.7676 2.1977 4.1972 3.5215 0.431 1.3276-0.2591 2.6052-1.9238 3.5488-1.668 0.94532-4.1747 1.4767-6.9648 1.4766-2.7904 0-5.6298-0.53125-7.8907-1.4766-4.6937-1.9628-5.6487-5.1288-2.1621-7.0703 1.6691-0.92959 4.1571-1.4512 6.918-1.4512zm-714.25 398.79c3.9325-0.00007 7.3782 1.0577 9.584 2.9453 2.2125 1.8928 3.001 4.4678 2.1856 7.1641-0.8187 2.7072-3.1859 5.314-6.5879 7.2422-7.1159 4.0331-16.655 4.033-21.242 0-2.193-1.9283-2.9255-4.5351-2.0469-7.2422 0.8752-2.6963 3.2787-5.2712 6.6777-7.1641 3.3894-1.8875 7.4974-2.9454 11.43-2.9453zm839.29 0c3.9323-0.00007 8.0403 1.0578 11.43 2.9453 3.399 1.8929 5.8025 4.4677 6.6777 7.1641 0.8786 2.7071 0.1461 5.3139-2.0469 7.2422-4.5869 4.033-14.126 4.0331-21.242 0-3.402-1.9281-5.7691-4.535-6.5878-7.2422-0.8155-2.6963-0.027-5.2713 2.1855-7.1641 2.2058-1.8876 5.6515-2.9454 9.584-2.9453zm-898.89 33.273c4.0302-0.00006 7.515 1.1106 9.6894 3.0938 2.1812 1.9885 2.8725 4.6943 1.9141 7.5273-0.96221 2.8445-3.5084 5.5848-7.084 7.6113-7.4792 4.2391-17.258 4.2394-21.775 0-2.1596-2.0265-2.7929-4.7667-1.7676-7.6113 1.0212-2.8331 3.6034-5.5389 7.1738-7.5273 3.5603-1.9826 7.8194-3.0937 11.85-3.0938zm958.49 0c4.0302 0.00004 8.2894 1.1111 11.85 3.0938 3.5703 1.9884 6.1526 4.6942 7.1738 7.5273 1.0253 2.8446 0.392 5.5849-1.7676 7.6113-4.5171 4.2394-14.296 4.2391-21.775 0-3.5756-2.0265-6.1218-4.7668-7.084-7.6113-0.9584-2.833-0.2671-5.5389 1.9141-7.5273 2.1744-1.9832 5.6592-3.0938 9.6894-3.0938z" transform="translate(-588.36,13.647)" stroke-dashoffset="5.3141" stroke-linecap="round" fill="#cccccc"/>
        <path id="path4229-6-2-0-1-1-2-3-1-7-8" stroke-linejoin="round" style="color-rendering:auto;color:#000000;isolation:auto;mix-blend-mode:normal;shape-rendering:auto;solid-color:#000000;image-rendering:auto" d="m641.35 291.18c-8.4331 0.0582-16.67 1.3395-22.84 3.7852-14.277 5.6587-17.819 17.68-4.5898 25.338l35.555 20.58c5.3822 3.1156 17.608 3.6276 24.52 4.5723 6.9954 0.95615 12.167 1.7647 18.102 5.1484l179.48 102.34c27.521 15.691 25.579 52.598-5.6191 69.871l-260.88 144.44c-10.813 5.987-18.445 7.4326-28.689 9.1484-10.169 1.7034-27.114 2.6288-37.537 8.3164l-73.051 39.861c-29.194 15.93-40.9 42.263-27.418 55.264 13.737 13.245 53.008 12.075 82.625-5.0703l73.99-42.83c10.545-6.1044 15.056-17.787 19.453-24.477 4.3973-6.689 7.9041-11.608 18.773-17.805l261.42-149.05c15.673-8.9358 40.502-13.362 65.354-13.332 24.851-0.0298 49.681 4.3962 65.354 13.332l261.42 149.05c10.869 6.197 14.376 11.116 18.774 17.805 4.3975 6.6892 8.9081 18.372 19.453 24.477l73.994 42.836c29.617 17.145 68.888 18.316 82.625 5.0703 13.482-13 1.776-39.334-27.418-55.264l-73.051-39.861c-10.423-5.6876-27.368-6.613-37.537-8.3164-10.245-1.7158-17.876-3.1614-28.69-9.1484l-260.9-144.45c-31.198-17.273-33.14-54.18-5.6191-69.871l179.49-102.34c5.9348-3.3838 11.106-4.1923 18.102-5.1484 6.9119-0.94468 19.137-1.4566 24.52-4.5723l35.555-20.58c13.229-7.6582 9.6872-19.679-4.5898-25.338-6.1702-2.4456-14.407-3.7269-22.84-3.7852-10.842-0.0748-22.01 1.8727-29.523 5.9727l-35.875 19.574c-5.4271 2.9613-4.9282 8.7569-5.9355 12.154-1.0248 3.4563-1.9901 6.0375-7.9473 9.3359 0 0-179.84 99.571-180.04 99.684-13.76 7.6188-36.542 11.422-59.328 11.416-22.786 0.006-45.568-3.7972-59.328-11.416-0.20251-0.11223-180.04-99.684-180.04-99.684-5.9572-3.2984-6.9225-5.8796-7.9473-9.3359-1.0073-3.3974-0.50845-9.193-5.9356-12.154l-35.875-19.574c-7.5139-4.1-18.681-6.0475-29.523-5.9727zm-4.1524 8.5312c2.7146 0.00014 5.1461 0.5038 6.7598 1.4024 3.3705 1.8769 2.3385 4.937-2.334 6.834-2.2506 0.91385-5.0578 1.4277-7.8008 1.4277s-5.1926-0.51403-6.8047-1.4277c-1.6091-0.91188-2.2496-2.1464-1.7871-3.4297 0.4612-1.2797 1.9826-2.5039 4.2285-3.4043 2.2416-0.89855 5.0236-1.4024 7.7383-1.4024zm645.61 0c2.7147 0 5.4967 0.5038 7.7383 1.4024 2.2459 0.9004 3.7673 2.1246 4.2285 3.4043 0.4625 1.2833-0.178 2.5178-1.7871 3.4297-1.6121 0.91371-4.0617 1.4277-6.8047 1.4277s-5.5502-0.51389-7.8008-1.4277c-4.6725-1.897-5.7045-4.9571-2.334-6.834 1.6137-0.89855 4.0452-1.4022 6.7598-1.4024zm-613.44 4.9648h0.002c0.99026 0.00023 1.9232 0.17638 2.5684 0.53125 1.2929 0.71108 0.93817 1.8678-0.79883 2.582-0.8351 0.34363-1.8833 0.53725-2.9141 0.53711-1.03 0.00014-1.9577-0.19454-2.5781-0.53711-0.61869-0.34298-0.88016-0.80888-0.72656-1.293 0.1532-0.48407 0.70847-0.94574 1.543-1.2871 0.86744-0.35503 1.9138-0.53297 2.9043-0.5332zm581.28 0v0c0.9905 0.00023 2.0368 0.17817 2.9043 0.5332 0.8345 0.34137 1.3897 0.80304 1.5429 1.2871 0.1536 0.48409-0.1078 0.94999-0.7265 1.293-0.6204 0.34257-1.5481 0.53725-2.5782 0.53711-1.0307 0.00014-2.0789-0.19348-2.914-0.53711-1.737-0.7142-2.0917-1.871-0.7988-2.582 0.6451-0.35487 1.5781-0.53102 2.5683-0.53125zm-585.26 10.77c2.7609 0 5.2489 0.52158 6.918 1.4512 3.4866 1.9415 2.5316 5.1076-2.1621 7.0703-2.2609 0.94532-5.1002 1.4766-7.8906 1.4766-2.7901 0.00014-5.2968-0.53125-6.9648-1.4766-1.6647-0.94362-2.3548-2.2212-1.9238-3.5488 0.4296-1.3238 1.941-2.5901 4.1973-3.5215 2.2521-0.92945 5.0655-1.451 7.8262-1.4512zm589.24 0c2.7607 0.00014 5.5741 0.52172 7.8262 1.4512 2.2563 0.93143 3.7676 2.1977 4.1972 3.5215 0.431 1.3276-0.2591 2.6052-1.9238 3.5488-1.668 0.94532-4.1747 1.4767-6.9648 1.4766-2.7904 0-5.6298-0.53125-7.8907-1.4766-4.6937-1.9628-5.6487-5.1288-2.1621-7.0703 1.6691-0.92959 4.1571-1.4512 6.918-1.4512zm-613.2 3.3906c1.0061 0 1.951 0.18273 2.5957 0.54883 1.2908 0.73276 0.89477 1.9239-0.89063 2.6602-1.7882 0.73758-4.288 0.73744-5.5781 0-1.2882-0.73672-0.88045-1.9268 0.90625-2.6602 0.8921-0.3661 1.9606-0.54883 2.9668-0.54883zm47.02 0c1.0061 0.00002 1.96 0.18275 2.623 0.54883 1.3278 0.73326 0.99089 1.9239-0.75781 2.6602-1.7514 0.73746-4.2514 0.73749-5.5781 0-1.3247-0.73634-0.97481-1.9268 0.77539-2.6602 0.8737-0.36606 1.9314-0.54885 2.9375-0.54883zm543.12 0c1.0061-0.00002 2.0638 0.18277 2.9375 0.54883 1.7502 0.73332 2.1001 1.9238 0.7754 2.6602-1.3267 0.73749-3.8267 0.73746-5.5781 0-1.7487-0.73628-2.0857-1.9269-0.7579-2.6602 0.663-0.36608 1.617-0.54881 2.6231-0.54883zm47.02 0c1.0062 0 2.0747 0.18273 2.9668 0.54883 1.7867 0.73333 2.1945 1.9234 0.9063 2.6602-1.2901 0.73744-3.79 0.73758-5.5782 0-1.7854-0.7363-2.1814-1.9274-0.8906-2.6602 0.6447-0.3661 1.5896-0.54883 2.5957-0.54883zm-618.21 14.598c1.0218 0 1.9845 0.18891 2.6465 0.56641 1.3262 0.756 0.94644 1.9847-0.85156 2.7441-1.8009 0.76053-4.337 0.76053-5.6621 0-1.323-0.75969-0.93437-1.988 0.86523-2.7441 0.8982-0.3775 1.9802-0.56641 3.002-0.56641zm599.27 0c1.0217 0 2.1037 0.18891 3.0019 0.56641 1.7996 0.75614 2.1883 1.9844 0.8653 2.7441-1.3251 0.76053-3.8613 0.76053-5.6622 0-1.798-0.7594-2.1777-1.9881-0.8515-2.7441 0.662-0.3775 1.6247-0.56641 2.6465-0.56641zm-355.06 115.76c2.4501 0 4.3898 1.0743 4.332 2.4043-0.0277 0.6409-0.52473 1.2559-1.3828 1.7109-0.85947 0.4558-2.0108 0.71289-3.1973 0.71289s-2.3103-0.25709-3.123-0.71289c-0.81148-0.455-1.2448-1.07-1.207-1.7109 0.0376-0.6396 0.54316-1.2529 1.4023-1.7031 0.85784-0.4498 1.9992-0.70117 3.1758-0.70117zm110.21 0c2.45 0 4.4996 1.0743 4.5781 2.4043 0.038 0.6409-0.3975 1.2559-1.209 1.7109-0.8128 0.4558-1.9366 0.71289-3.123 0.71289-1.1865 0-2.3359-0.25709-3.1954-0.71289-0.8581-0.455-1.3549-1.07-1.3828-1.7109-0.028-0.6396 0.4136-1.2529 1.2266-1.7031 0.8118-0.4498 1.9289-0.70117 3.1055-0.70117zm-113.45 63.387c2.5934 0 4.6449 1.2044 4.5801 2.6953-0.0313 0.7184-0.56076 1.4097-1.4707 1.9199-0.91149 0.5112-2.1302 0.79688-3.3867 0.79688s-2.4456-0.28568-3.3047-0.79688c-0.85766-0.5102-1.3139-1.2015-1.2715-1.9199 0.0424-0.7168 0.57909-1.4033 1.4902-1.9082 0.90963-0.5037 2.1179-0.78711 3.3633-0.78711zm116.68 0c2.5935 0 4.7676 1.2044 4.8555 2.6953 0.042 0.7184-0.4158 1.4097-1.2734 1.9199-0.8592 0.5112-2.0482 0.79688-3.3047 0.79688s-2.4753-0.28568-3.3867-0.79688c-0.91-0.5102-1.4375-1.2015-1.4688-1.9199-0.031-0.7168 0.4355-1.4033 1.2949-1.9082 0.858-0.5037 2.0378-0.78711 3.2832-0.78711zm-471.55 184.95c1.461-0.00013 2.7418 0.38842 3.5606 1.0801 0.8196 0.69186 1.1114 1.6302 0.8086 2.6113-0.3034 0.98258-1.1781 1.9263-2.4316 2.623-2.614 1.453-6.1218 1.4534-7.8262 0-1.7011-1.4499-0.95805-3.7929 1.6524-5.2344 1.2516-0.69123 2.7754-1.0801 4.2363-1.0801zm827.09 0c1.4609-0.00001 2.9847 0.38885 4.2363 1.0801 2.6104 1.4415 3.3534 3.7845 1.6523 5.2344-1.7044 1.4534-5.2121 1.453-7.8261 0-1.2535-0.69673-2.1283-1.6405-2.4317-2.623-0.3028-0.98107-0.011-1.9194 0.8086-2.6113 0.8187-0.69165 2.0996-1.0802 3.5606-1.0801zm-833.19 16.703c3.9325-0.00007 7.3782 1.0577 9.584 2.9453 2.2125 1.8928 3.001 4.4678 2.1856 7.1641-0.8187 2.7072-3.1859 5.314-6.5879 7.2422-7.1159 4.0331-16.655 4.033-21.242 0-2.193-1.9283-2.9255-4.5351-2.0469-7.2422 0.8752-2.6963 3.2787-5.2712 6.6777-7.1641 3.3894-1.8875 7.4974-2.9454 11.43-2.9453zm839.29 0c3.9323-0.00007 8.0403 1.0578 11.43 2.9453 3.399 1.8929 5.8025 4.4677 6.6777 7.1641 0.8786 2.7071 0.1461 5.3139-2.0469 7.2422-4.5869 4.033-14.126 4.0331-21.242 0-3.402-1.9281-5.7691-4.535-6.5878-7.2422-0.8155-2.6963-0.027-5.2713 2.1855-7.1641 2.2058-1.8876 5.6515-2.9454 9.584-2.9453zm-797.23 5.6914c1.4343 0.00001 2.7637 0.37341 3.6504 1.1172 1.7774 1.4909 1.1068 3.9144-1.5059 5.4141-2.6182 1.5028-6.1851 1.503-7.959 0-1.7702-1.4995-1.078-3.9231 1.5371-5.4141 1.3045-0.74376 2.8432-1.1172 4.2774-1.1172zm755.17 0c1.4342-0.00001 2.9728 0.37343 4.2773 1.1172 2.6151 1.491 3.3073 3.9145 1.5371 5.4141-1.7739 1.503-5.3407 1.5028-7.9589 0-2.6127-1.4997-3.2833-3.9232-1.5059-5.4141 0.8867-0.74378 2.2161-1.1172 3.6504-1.1172zm-841.11 0.002c1.4342 0.00005 2.7407 0.37167 3.5801 1.1152 1.6821 1.4908 0.85684 3.9144-1.8516 5.4141-1.3027 0.72135-2.8749 1.1268-4.3691 1.127-1.4941-0.00006-2.7862-0.40587-3.5918-1.127-0.8045-0.72054-1.0558-1.6966-0.70117-2.7129 0.3542-1.0147 1.2833-1.9857 2.584-2.7012 1.3521-0.74378 2.9154-1.1153 4.3496-1.1152zm927.04 0c1.4342-0.00006 2.9975 0.37146 4.3496 1.1152 1.3007 0.71545 2.2298 1.6865 2.584 2.7012 0.3546 1.0162 0.1033 1.9924-0.7012 2.7129-0.8056 0.72108-2.0977 1.1269-3.5918 1.127-1.4942-0.0001-3.0664-0.4056-4.3691-1.127-2.7084-1.4996-3.5337-3.9232-1.8516-5.4141 0.8394-0.74357 2.1459-1.1152 3.5801-1.1152zm-891.2 23.17c1.459 0.00003 2.798 0.38471 3.6719 1.1543 1.7516 1.5427 0.97828 4.0515-1.7363 5.6035-2.7207 1.5553-6.3524 1.5557-8.0996 0-1.7436-1.552-0.94727-4.0608 1.7695-5.6035 1.3554-0.7697 2.9356-1.1543 4.3945-1.1543zm855.6 0c1.4589-0.00003 3.0391 0.38459 4.3945 1.1543 2.7168 1.5428 3.5131 4.0516 1.7695 5.6035-1.7472 1.5557-5.3789 1.5553-8.0996 0-2.7146-1.552-3.4879-4.0608-1.7363-5.6035 0.8739-0.76958 2.2129-1.1543 3.6719-1.1543zm-907.04 4.4141c4.0302-0.00006 7.515 1.1106 9.6894 3.0938 2.1812 1.9885 2.8724 4.6943 1.9141 7.5273-0.9622 2.8445-3.5084 5.5848-7.084 7.6113-7.4792 4.2391-17.258 4.2394-21.775 0-2.1596-2.0265-2.7929-4.7667-1.7676-7.6113 1.0212-2.8331 3.6032-5.5389 7.1738-7.5273 3.5602-1.9826 7.8194-3.0937 11.85-3.0938zm958.49 0c4.0302 0.00004 8.2894 1.1111 11.85 3.0938 3.5705 1.9884 6.1526 4.6942 7.1738 7.5273 1.0253 2.8446 0.392 5.5849-1.7676 7.6113-4.5171 4.2394-14.296 4.2391-21.775 0-3.5756-2.0265-6.1218-4.7668-7.084-7.6113-0.9584-2.833-0.2671-5.5389 1.9141-7.5273 2.1744-1.9832 5.6592-3.0938 9.6894-3.0938z" transform="translate(-588.36,13.647)" stroke-dashoffset="5.3141" stroke-linecap="round" fill="#ffffff"/>
        <g id="g7" stroke-width="1px" fill="none">
            <path id="path201492" d="m898.83 780.44v7.0803"/>
            <path id="path201521" d="m725.96 323v7.9972"/>
            <path id="path201492-7" d="m-155.54 780.44v7.0803"/>
            <path id="path201521-4" d="m17.333 323v7.9972"/>
        </g>
    </g>
</g>
</svg>
