<svg id="svg39620" xmlns:rdf="http://www.w3.org/1999/02/22-rdf-syntax-ns#" xmlns="http://www.w3.org/2000/svg" height="1100" viewBox="0 0 1500 1100" width="1500" version="1.1" xmlns:cc="http://creativecommons.org/ns#" xmlns:dc="http://purl.org/dc/elements/1.1/">
    <g id="top-spacer" stroke-linejoin="round" stroke-dashoffset="5.3141" stroke="#000000" stroke-linecap="round" fill="#ffffff">
        <g id="g275081" transform="translate(376.98 52.617)">
            <path id="path275083" style="color-rendering:auto;color:#000000;isolation:auto;mix-blend-mode:normal;shape-rendering:auto;solid-color:#000000;image-rendering:auto" fill="#cccccc" d="m312.56 534.03c-2.356 0-4.5856-0.5417-6.1964-1.5046-1.6081-0.9613-2.4656-2.2625-2.3862-3.6162v-8h17.687v8c-0.0586 1.3537-1.0488 2.6549-2.7549 3.6162-1.709 0.9629-3.9939 1.5046-6.3498 1.5046"/>
            <path id="path275085" style="color-rendering:auto;color:#000000;isolation:auto;mix-blend-mode:normal;shape-rendering:auto;solid-color:#000000;image-rendering:auto" fill="#ffffff" d="m312.56 526.03c-2.356 0-4.5856-0.5417-6.1964-1.5046-1.6081-0.9613-2.4656-2.2625-2.3862-3.6162 0.0793-1.3505 1.0847-2.6427 2.793-3.5936 1.7055-0.9493 3.9742-1.4819 6.3094-1.4819 4.8626 0 8.7064 2.2668 8.5849 5.0755-0.0586 1.3537-1.0488 2.6549-2.7549 3.6162-1.709 0.9629-3.9939 1.5046-6.3498 1.5046"/>
        </g>
        <path id="path268698-1-2-7-5" style="color-rendering:auto;color:#000000;isolation:auto;mix-blend-mode:normal;shape-rendering:auto;solid-color:#000000;image-rendering:auto" d="m689.62 575.81c-1.2565 0-2.4457-0.2874-3.3048-0.7986-0.85766-0.5102-1.315-1.201-1.2726-1.9194 0.0424-0.7168 0.57852-1.4028 1.4897-1.9077 0.90963-0.5037 2.1197-0.7865 3.3651-0.7865 2.5934 0 4.6435 1.2033 4.5787 2.6942-0.0313 0.7184-0.55939 1.4092-1.4693 1.9194-0.91148 0.5112-2.1301 0.7986-3.3866 0.7986"/>
        <path id="path275169" style="color-rendering:auto;color:#000000;isolation:auto;mix-blend-mode:normal;shape-rendering:auto;solid-color:#000000;image-rendering:auto" d="m690.39 571.65 1.73 1.067-0.63326 1.4576-2.3633 0.39058-1.73-1.067 0.63326-1.4576z" stroke-width=".99995"/>
        <g id="g275091" transform="translate(376.98 52.617)">
            <path id="path275093" style="color-rendering:auto;color:#000000;isolation:auto;mix-blend-mode:normal;shape-rendering:auto;solid-color:#000000;image-rendering:auto" d="m315.83 469.8c-2.2246 0-4.3315-0.483-5.8554-1.3416-1.5215-0.8573-2.2644-2.0157-2.2644-3.2253v-7.7093l16.705-0.29072v8c-0.0522 1.2075-0.98441 2.368-2.5933 3.2253-1.6114 0.8586-3.7676 1.3416-5.9922 1.3416" transform="translate(0,-3e-6)" fill="#cccccc"/>
            <path id="path275095" style="color-rendering:auto;color:#000000;isolation:auto;mix-blend-mode:normal;shape-rendering:auto;solid-color:#000000;image-rendering:auto" fill="#ffffff" d="m315.83 461.8c-2.2246 0-4.3315-0.483-5.8554-1.3416-1.5215-0.8573-2.3353-2.0178-2.2644-3.2253 0.0707-1.2048 1.0164-2.3578 2.6274-3.2062 1.6084-0.8472 3.7502-1.3225 5.9562-1.3225 4.5938 0 8.2302 2.0228 8.1218 4.5287-0.0522 1.2075-0.98441 2.368-2.5933 3.2253-1.6114 0.8586-3.7676 1.3416-5.9922 1.3416"/>
        </g>
        <path id="rect204962-9-5-1-4-6-1-1-7-0" style="color-rendering:auto;color:#000000;isolation:auto;mix-blend-mode:normal;shape-rendering:auto;solid-color:#000000;image-rendering:auto" d="m692.89 511.84c-1.1865 0-2.3102-0.2562-3.123-0.712-0.81148-0.455-1.2455-1.0711-1.2077-1.712 0.0376-0.6396 0.54212-1.2515 1.4013-1.7017 0.85784-0.4498 2.0002-0.7021 3.1767-0.7021 2.4501 0 4.3895 1.0738 4.3317 2.4038-0.0277 0.6409-0.52502 1.257-1.3831 1.712-0.85947 0.4558-2.0095 0.712-3.1959 0.712"/>
        <path id="path275169-4" style="color-rendering:auto;color:#000000;isolation:auto;mix-blend-mode:normal;shape-rendering:auto;solid-color:#000000;image-rendering:auto" d="m693.49 508.31 1.3143 0.81061-0.48107 1.1073-1.7954 0.29671-1.3143-0.81061 0.48107-1.1073z"/>
        <g id="g275111" transform="translate(376.98 52.617)">
            <path id="path275113" style="color-rendering:auto;color:#000000;isolation:auto;mix-blend-mode:normal;shape-rendering:auto;solid-color:#000000;image-rendering:auto" d="m430.03 534.03c-2.3559 0-4.6408-0.5417-6.3498-1.5046-1.7061-0.9613-2.6963-2.2625-2.7549-3.6162-0.058-1.3505 0-8 0-8l17.687 0.34266v7.6574c0.079 1.3537-0.7781 2.6549-2.3862 3.6162-1.6108 0.9629-3.8405 1.5046-6.1964 1.5046" transform="translate(0,-3e-6)" fill="#cccccc"/>
            <path id="path275115" style="color-rendering:auto;color:#000000;isolation:auto;mix-blend-mode:normal;shape-rendering:auto;solid-color:#000000;image-rendering:auto" fill="#ffffff" d="m430.03 526.03c-2.3559 0-4.6408-0.5417-6.3498-1.5046-1.7061-0.9613-2.6963-2.2625-2.7549-3.6162-0.058-1.3505 0.8152-2.6427 2.4266-3.5936 1.6087-0.9493 3.8232-1.4819 6.1583-1.4819 4.8626 0 8.9375 2.2668 9.1024 5.0755 0.079 1.3537-0.7781 2.6549-2.3862 3.6162-1.6108 0.9629-3.8405 1.5046-6.1964 1.5046"/>
        </g>
        <path id="path268700-5-3-1-6" style="color-rendering:auto;color:#000000;isolation:auto;mix-blend-mode:normal;shape-rendering:auto;solid-color:#000000;image-rendering:auto" d="m806.82 575.81c-1.2565 0-2.4752-0.2874-3.3867-0.7986-0.9099-0.5102-1.438-1.201-1.4693-1.9194-0.031-0.7168 0.4348-1.4028 1.2942-1.9077 0.858-0.5037 2.0391-0.7865 3.2845-0.7865 2.5935 0 4.7669 1.2033 4.8548 2.6942 0.042 0.7184-0.415 1.4092-1.2727 1.9194-0.8591 0.5112-2.0483 0.7986-3.3048 0.7986"/>
        <path id="path275169-0" style="color-rendering:auto;color:#000000;isolation:auto;mix-blend-mode:normal;shape-rendering:auto;solid-color:#000000;image-rendering:auto" d="m807.34 571.65 1.73 1.067-0.63326 1.4576-2.3633 0.39058-1.73-1.067 0.63326-1.4576z" stroke-width=".99995"/>
        <g id="g275101" transform="translate(376.98 52.617)">
            <path id="path275103" style="color-rendering:auto;color:#000000;isolation:auto;mix-blend-mode:normal;shape-rendering:auto;solid-color:#000000;image-rendering:auto" d="m426.76 469.8c-2.2246 0-4.3808-0.483-5.9922-1.3416-1.6089-0.8573-2.541-2.0178-2.5933-3.2253l-0.00002-8.0005 16.705 0.00012 0.00002 8.0004c0.071 1.2075-0.7429 2.368-2.2644 3.2253-1.5239 0.8586-3.6308 1.3416-5.8554 1.3416" transform="translate(0,-3e-6)" fill="#cccccc"/>
            <path id="path275105" style="color-rendering:auto;color:#000000;isolation:auto;mix-blend-mode:normal;shape-rendering:auto;solid-color:#000000;image-rendering:auto" fill="#ffffff" d="m426.76 461.8c-2.2246 0-4.3808-0.483-5.9922-1.3416-1.6089-0.8573-2.541-2.0178-2.5933-3.2253-0.052-1.2048 0.7761-2.3578 2.3005-3.2062 1.522-0.8472 3.6153-1.3225 5.8213-1.3225 4.5937 0 8.4364 2.0228 8.5835 4.5287 0.071 1.2075-0.7429 2.368-2.2644 3.2253-1.5239 0.8586-3.6308 1.3416-5.8554 1.3416"/>
        </g>
        <path id="path268696-3-9-5" style="color-rendering:auto;color:#000000;isolation:auto;mix-blend-mode:normal;shape-rendering:auto;solid-color:#000000;image-rendering:auto" d="m803.62 511.84c-1.1865 0-2.3365-0.2562-3.196-0.712-0.8581-0.455-1.3552-1.0711-1.3831-1.712-0.028-0.6396 0.4139-1.2515 1.227-1.7017 0.8117-0.4498 1.9282-0.7021 3.1047-0.7021 2.4501 0 4.4996 1.0738 4.578 2.4038 0.038 0.6409-0.3962 1.257-1.2077 1.712-0.8128 0.4558-1.9365 0.712-3.1229 0.712"/>
        <path id="path275169-4-0" style="color-rendering:auto;color:#000000;isolation:auto;mix-blend-mode:normal;shape-rendering:auto;solid-color:#000000;image-rendering:auto" d="m803.95 508.31 1.3143 0.81061-0.48107 1.1073-1.7954 0.29671-1.3143-0.81061 0.48107-1.1073z"/>
    </g>
</svg>
