<svg id="svg39620" xmlns:rdf="http://www.w3.org/1999/02/22-rdf-syntax-ns#" xmlns="http://www.w3.org/2000/svg" height="1100" viewBox="0 0 1500 1100" width="1500" version="1.1" xmlns:cc="http://creativecommons.org/ns#" xmlns:dc="http://purl.org/dc/elements/1.1/">
    <g id="xt60">
        <g id="g8147" transform="translate(-211.38 78.264)" stroke="#000000">
            <g id="g213382-9-1-8" stroke-linejoin="round" transform="matrix(0 .45879 -.461 0 3464.2 -3183.7)" stroke-dashoffset="5.3141" stroke-linecap="round" stroke-width="2.1744" fill="#ffffff">
                <path id="rect212455-0-6-8-2-4-7-2-2" style="color-rendering:auto;color:#000000;isolation:auto;mix-blend-mode:normal;shape-rendering:auto;solid-color:#000000;image-rendering:auto" d="m8003.1 5664.4c0 0.8409-0.058 1.4458-0.5345 2.2367l-11.398 18.912c-0.7644 1.2683-0.9661 1.6587-2.1758 1.5333 0 0-60.732-6.2933-60.732-6.2933-0.9712-0.1007-1.752-1.5592-1.752-3.2726v-58.574c0-1.7134 0.7808-3.0312 1.7519-2.9569l60.732 4.648c1.2097 0.093 1.4114 0.5193 2.1758 1.9253 0 0 11.398 20.966 11.398 20.966 0.4766 0.8768 0.5345 1.4921 0.5345 2.333v18.542"/>
                <path id="rect212455-0-6-8-2-7-8-7-0-9" style="color-rendering:auto;color:#000000;isolation:auto;mix-blend-mode:normal;shape-rendering:auto;solid-color:#000000;image-rendering:auto" d="m7998 5661.9c0 0.6611-0.052 1.1361-0.4829 1.7531l-8.9529 14.896c-0.6918 0.9909-0.8744 1.2962-1.9694 1.1859 0 0-55.106-5.552-55.106-5.552-0.8833-0.089-1.5935-1.2475-1.5935-2.5994v-46.216c0-1.3519 0.7102-2.3824 1.5935-2.3123l55.106 4.3758c1.095 0.087 1.2776 0.4252 1.9694 1.5407l8.9529 16.509c0.4306 0.6945 0.4829 1.1789 0.4829 1.8401v14.579"/>
                <path id="rect212622-4-8-5-0-4-3" style="color-rendering:auto;color:#000000;isolation:auto;mix-blend-mode:normal;shape-rendering:auto;solid-color:#000000;image-rendering:auto" d="m7958.5 5668.5 10.086 0.981v8.4763l-10.086-1.0162v-8.4411"/>
                <g id="g2178">
                    <g id="g213190-6-9-5-0" transform="matrix(.70711 -.70711 .70711 .70711 -198.15 5270.4)">
                        <path id="path212754-2-6-7-3-6-9-0-5-4-0-2-2" style="color-rendering:auto;color:#000000;isolation:auto;mix-blend-mode:normal;shape-rendering:auto;solid-color:#000000;image-rendering:auto" d="m5492.2 6013.5c-5.9378 2.2727-11.893 8.2292-14.495 14.497l4.4638-1.1659c1.7138-3.6432 5.0962-7.0243 8.5653-8.5619l1.4656-4.7691m3.1534-0.8233-1.4605 4.7618c3.0572-0.1718 4.7822 1.8786 4.3612 5.1944l4.5131-1.1788c1.1282-5.9108-1.9276-9.5145-7.4138-8.7774m-18.695 18.69c-1.1625 5.9136 1.8445 9.5669 7.3264 8.866 0 0 1.4761-4.8036 1.4761-4.8036-3.0531 0.1569-4.7603-1.9108-4.3259-5.2287l-4.4766 1.1663m20.569-5.3585c-1.7143 3.6611-5.1137 7.0591-8.5991 8.5956l-1.4771 4.8161c5.9813-2.264 11.986-8.2697 14.582-14.586l-4.5059 1.1739"/>
                        <path id="path212754-2-4-4-9-6-5-8-9-7-2-3" style="color-rendering:auto;color:#000000;isolation:auto;mix-blend-mode:normal;shape-rendering:auto;solid-color:#000000;image-rendering:auto" d="m5494.5 6015.6-0.5651 1.8426c3.0571-0.1719 4.7822 1.8785 4.3611 5.1944l1.7385-0.4541c0.6874-4.3133-1.5454-6.9616-5.5345-6.5829m-3.1598 0.8386c-4.4221 1.8272-8.7921 6.1948-10.857 10.851 0 0 1.7266-0.451 1.7266-0.451 1.7137-3.6433 5.0962-7.0243 8.5653-8.5619l0.5649-1.8382m-11.889 14.216c-0.7082 4.3162 1.4963 6.9928 5.481 6.6366l0.5708-1.8575c-3.053 0.1569-4.7602-1.9108-4.3259-5.2287l-1.7259 0.4496m17.819-4.6422c-1.7147 3.6616-5.1147 7.0599-8.6006 8.596l-0.569 1.8551c4.4479-1.8242 8.8453-6.2198 10.909-10.904 0 0-1.7393 0.4531-1.7393 0.4531"/>
                    </g>
                    <g id="g213190-2-2-0-2-2" transform="matrix(-.70711 -.70711 .70711 -.70711 8473.3 9699.7)">
                        <path id="path212754-2-6-7-3-6-9-0-5-3-2-6-8-4" style="color-rendering:auto;color:#000000;isolation:auto;mix-blend-mode:normal;shape-rendering:auto;solid-color:#000000;image-rendering:auto" d="m3203.5 2500.8c-6.0464-1.1476-9.8147 1.9525-9.1452 7.5532l4.9069 1.4753c-0.135-3.1223 1.998-4.8834 5.3933-4.4622l-1.2-4.6m3.4394 1.0487 1.1552 4.5547c3.7156 1.7269 7.1481 5.1613 8.6926 8.6973l4.8727 1.465c-2.2771-6.0553-8.3251-12.102-14.72-14.717m-11.779 9.7398c2.2674 6.1016 8.3675 12.2 14.814 14.809 0 0-1.1636-4.6-1.1636-4.6-3.7348-1.7269-7.1856-5.1791-8.7292-8.7327l-4.9214-1.4767m22.454 6.7373c0.15 3.1249-1.9637 4.904-5.355 4.498l1.1686 4.6074c6.0434 1.1111 9.7598-2.0402 9.0516-7.6455l-4.8652-1.4599"/>
                        <path id="path212754-2-4-4-9-6-5-8-4-0-3-0-9" style="color-rendering:auto;color:#000000;isolation:auto;mix-blend-mode:normal;shape-rendering:auto;solid-color:#000000;image-rendering:auto" d="m3207.6 2504.6 0.447 1.7625c3.7156 1.7268 7.1481 5.1612 8.6926 8.6972l1.8792 0.565c-1.8333-4.509-6.2684-8.9465-11.019-11.025m-3.4369-1.0313c-4.4141-0.6935-7.1743 1.5798-6.8438 5.6523l1.8957 0.5699c-0.135-3.1223 1.998-4.8834 5.3933-4.4621l-0.4452-1.7601m-6.0237 8.887c1.8295 4.5363 6.2938 9.003 11.074 11.08l-0.4499-1.7788c-3.7348-1.7269-7.1856-5.1791-8.7292-8.7327 0 0-1.8951-0.5686-1.8951-0.5686m19.429 5.8298c0.1499 3.1252-1.9646 4.9042-5.3566 4.4975l0.4501 1.7747c4.4105 0.671 7.1407-1.6316 6.7868-5.708l-1.8803-0.5642"/>
                    </g>
                    <path id="rect212622-4-8-5-3-5-8-1" style="color-rendering:auto;color:#000000;isolation:auto;mix-blend-mode:normal;shape-rendering:auto;solid-color:#000000;image-rendering:auto" d="m7961.1 5638.7 4.7462 0.4027v25.401l-4.7462-0.4524v-25.351"/>
                </g>
            </g>
            <g id="g269377" transform="translate(1.9999,-7.9986)">
                <g id="g2188" stroke-linejoin="round" stroke-dashoffset="5.3141" stroke-linecap="round" fill="#ffffff">
                    <path id="rect212455-0-6-8-2-4-7-2-2-0" style="color-rendering:auto;color:#000000;isolation:auto;mix-blend-mode:normal;shape-rendering:auto;solid-color:#000000;image-rendering:auto" d="m850.94 456.05c-0.38766 0-0.66651-0.0266-1.0311-0.24522l-8.7186-5.2294c-0.58468-0.35069-0.76465-0.44323-0.70684-0.99823l2.9012-27.863c0.0464-0.44557 0.71879-0.80379 1.5087-0.80379h27.002c0.78987 0 1.3974 0.35822 1.3631 0.80375 0 0-2.1427 27.863-2.1427 27.863-0.0429 0.555-0.23939 0.64754-0.88755 0.99823l-9.6652 5.2294c-0.4042 0.21865-0.68786 0.24522-1.0755 0.24522h-8.5478"/>
                    <path id="rect212455-0-6-8-2-7-8-7-0-9-9" style="color-rendering:auto;color:#000000;isolation:auto;mix-blend-mode:normal;shape-rendering:auto;solid-color:#000000;image-rendering:auto" d="m852.06 453.74c-0.30477 0-0.52374-0.0239-0.80818-0.22155l-6.8668-4.1075c-0.45681-0.31739-0.59755-0.40116-0.5467-0.90354l2.5595-25.282c0.041-0.40525 0.57509-0.73108 1.1983-0.73108h21.304c0.62323 0 1.0983 0.32583 1.066 0.73108l-2.0172 25.282c-0.0401 0.50238-0.19602 0.58615-0.71026 0.90354l-7.6104 4.1075c-0.32016 0.19755-0.54347 0.22155-0.84828 0.22155h-6.7208"/>
                    <path id="rect212622-4-8-5-0-4-3-8" style="color-rendering:auto;color:#000000;isolation:auto;mix-blend-mode:normal;shape-rendering:auto;solid-color:#000000;image-rendering:auto" d="m849.04 435.59-0.45223 4.6272h-3.9076l0.46847-4.6272h3.8913"/>
                </g>
                <g id="g213190-6-9-5-0-2" stroke-width="2.1744" fill="#ffffff" transform="matrix(.32597 .32441 -.32597 .32441 1032.6 -3306.6)">
                    <path id="path212754-2-6-7-3-6-9-0-5-4-0-2-2-3" stroke-linejoin="round" style="color-rendering:auto;color:#000000;isolation:auto;mix-blend-mode:normal;shape-rendering:auto;solid-color:#000000;image-rendering:auto" d="m5492.2 6013.5c-5.9378 2.2727-11.893 8.2292-14.495 14.497l4.4638-1.1659c1.7138-3.6432 5.0962-7.0243 8.5653-8.5619l1.4656-4.7691v0m3.1534-0.8233-1.4605 4.7618c3.0572-0.1718 4.7822 1.8786 4.3612 5.1944l4.5131-1.1788c1.1282-5.9108-1.9276-9.5145-7.4138-8.7774v0m-18.695 18.69c-1.1625 5.9136 1.8445 9.5669 7.3264 8.866 0 0 1.4761-4.8036 1.4761-4.8036-3.0531 0.1569-4.7603-1.9108-4.3259-5.2287l-4.4766 1.1663v0m20.569-5.3585c-1.7143 3.6611-5.1137 7.0591-8.5991 8.5956l-1.4771 4.8161c5.9813-2.264 11.986-8.2697 14.582-14.586l-4.5059 1.1739v0" stroke-dashoffset="5.3141" stroke="#000000" stroke-linecap="round" stroke-width="2.1744" fill="#ffffff"/>
                </g>
                <path id="path269301" stroke-width="1px" fill="none" d="m848.59 440.22v11.707"/>
                <g id="g2196" stroke-linejoin="round" fill-rule="evenodd" stroke-width="1px" fill="#ffffff">
                    <path id="path269281" d="m840.48 449.58-0.00001 40 9.9489 6.4728v-40.037z"/>
                    <path id="path269287" d="m850.43 456.01 9.5849-0.003v40l-9.5849 0.003z"/>
                    <path id="path269293" d="m873.26 422.72-2.1797 28.181-0.49102 39.474 2.6537-28.443z"/>
                    <path id="path269295" d="m860.02 456.01 11.062-6.1852-0.49102 40.552-10.571 5.6327z"/>
                </g>
                <rect id="rect269297" stroke-linejoin="round" style="color-rendering:auto;color:#000000;isolation:auto;mix-blend-mode:normal;shape-rendering:auto;solid-color:#000000;image-rendering:auto" stroke-dashoffset="5.3141" rx=".38065" ry=".16512" height="1" width="6" stroke-linecap="round" y="464.47" x="852.23" fill="#000000"/>
                <g id="g2203" stroke-width="1px" fill="none">
                    <path id="path269299" d="m846.98 422.66v12.934"/>
                    <path id="path269303" d="m844.68 440.22v9.3695"/>
                    <path id="path269314" d="m849.04 435.59v16.604"/>
                </g>
                <g id="g213190-2-2-0-2-2-6" stroke-width="2.1744" fill="#ffffff" transform="matrix(.32597 -.32441 .32597 .32441 -1009.3 671.79)">
                    <path id="path212754-2-6-7-3-6-9-0-5-3-2-6-8-4-6" stroke-linejoin="round" style="color-rendering:auto;color:#000000;isolation:auto;mix-blend-mode:normal;shape-rendering:auto;solid-color:#000000;image-rendering:auto" d="m3203.5 2500.8c-6.0464-1.1476-9.8147 1.9525-9.1452 7.5532l4.9069 1.4753c-0.135-3.1223 1.998-4.8834 5.3933-4.4622l-1.155-4.5663v0m3.4394 1.0487 1.1552 4.5547c3.7156 1.7269 7.1481 5.1613 8.6926 8.6973l4.8727 1.465c-2.2771-6.0553-8.3251-12.102-14.72-14.717v0m-11.779 9.7398c2.2674 6.1016 8.3675 12.2 14.814 14.809 0 0-1.1636-4.6-1.1636-4.6-3.7348-1.7269-7.1856-5.1791-8.7292-8.7327l-4.9214-1.4767v0m22.454 6.7373c0.15 3.1249-1.9637 4.904-5.355 4.498l1.1686 4.6074c6.0434 1.1111 9.7598-2.0402 9.0516-7.6455l-4.8652-1.4599v0" stroke-dashoffset="5.3141" stroke="#000000" stroke-linecap="round" stroke-width="2.1744" fill="#ffffff"/>
                </g>
                <g id="g2210" stroke-width="1px" fill="none">
                    <path id="path269316" d="m851.25 432.03v12.469"/>
                    <path id="path269318" d="m852.55 432.79v9.907"/>
                    <path id="path269320" d="m862.06 432.79v11.269"/>
                    <path id="path269322" d="m863.5 432.03v12.874"/>
                    <path id="path269324" d="m861.64 430.95v1.5998"/>
                    <path id="path269326" d="m853.3 430.95v1.4468"/>
                    <path id="path269328" d="m865.35 429.18v21.254"/>
                    <path id="path269330" d="m860.61 427.1v4.8527"/>
                    <path id="path269332" d="m855.03 427.09v4.7642"/>
                    <path id="path269334" d="m853.6 427.85v4.1039"/>
                    <path id="path269336" d="m853.19 426.02v1.5927"/>
                    <path id="path269338" d="m849.88 429.78v14.216"/>
                    <path id="path269340" d="m862.64 426.02 0.0931 1.3912"/>
                    <path id="path269342" d="m850.92 450.03v3.2835"/>
                    <path id="path269344" d="m860.57 450.03v2.9809"/>
                    <path id="path269346" d="m862.17 449.27v2.8822"/>
                    <path id="path269348" d="m860.21 448.21v1.6018"/>
                    <path id="path269350" d="m851.7 448.23 0.009 1.3788"/>
                    <path id="path269352" d="m863.92 446.27v4.9368"/>
                    <path id="path269354" d="m853.44 444.15v4.914"/>
                    <path id="path269356" d="m858.91 444.17v4.8745"/>
                    <path id="path269358" d="m851.98 444.93v4.5271"/>
                    <path id="path269360" d="m860.43 444.93v2.9548"/>
                </g>
            </g>
        </g>
    </g>
</svg>
